<svg xmlns="http://www.w3.org/2000/svg" xmlns:xlink="http://www.w3.org/1999/xlink" width="1299" zoomAndPan="magnify" viewBox="0 0 974.25 274.499992" height="366" preserveAspectRatio="xMidYMid meet" version="1.0"><defs><g/><clipPath id="d1d3c47827"><path d="M 93 54 L 282 54 L 282 272 L 93 272 Z M 93 54 " clip-rule="nonzero"/></clipPath><clipPath id="a01eb78e44"><path d="M 0.511719 108.664062 L 187.066406 -0.160156 L 282.148438 162.835938 L 95.59375 271.660156 Z M 0.511719 108.664062 " clip-rule="nonzero"/></clipPath><clipPath id="ffa1ecb023"><path d="M 93.65625 54.332031 L 281.878906 162.996094 L 95.59375 271.660156 Z M 93.65625 54.332031 " clip-rule="nonzero"/></clipPath><clipPath id="1783e83d52"><path d="M 96.855469 171 L 176.207031 171 L 176.207031 219.96875 L 96.855469 219.96875 Z M 96.855469 171 " clip-rule="nonzero"/></clipPath><clipPath id="50a55481d1"><path d="M 100 87.460938 L 175 87.460938 L 175 186 L 100 186 Z M 100 87.460938 " clip-rule="nonzero"/></clipPath></defs><g clip-path="url(#d1d3c47827)"><g clip-path="url(#a01eb78e44)"><g clip-path="url(#ffa1ecb023)"><path fill="#ff3030" d="M 0.511719 108.664062 L 187.066406 -0.160156 L 282.148438 162.835938 L 95.59375 271.660156 Z M 0.511719 108.664062 " fill-opacity="1" fill-rule="nonzero"/></g></g></g><g clip-path="url(#1783e83d52)"><path fill="#1a1a1a" d="M 96.824219 219.726562 L 176.503906 219.726562 C 171.449219 214.542969 165.382812 210.347656 158.648438 207.429688 C 153.335938 205.164062 147.585938 203.695312 141.5625 203.167969 L 141.5625 171.898438 L 131.765625 171.898438 L 131.765625 203.167969 C 118.082031 204.34375 105.867188 210.453125 96.824219 219.726562 Z M 96.824219 219.726562 " fill-opacity="1" fill-rule="nonzero"/></g><g clip-path="url(#50a55481d1)"><path fill="#1a1a1a" d="M 109.078125 113.871094 C 109.445312 114.527344 109.210938 115.359375 108.554688 115.726562 L 100.507812 120.222656 C 100.691406 121.273438 100.917969 122.328125 101.25 123.378906 L 101.335938 123.644531 L 108.804688 119.46875 C 109.46875 119.101562 110.296875 119.335938 110.664062 119.996094 C 111.03125 120.652344 110.796875 121.484375 110.136719 121.851562 L 102.175781 126.300781 L 103.488281 130.460938 L 111.070312 126.222656 C 111.730469 125.851562 112.558594 126.09375 112.925781 126.75 C 113.292969 127.40625 113.058594 128.238281 112.402344 128.605469 L 104.324219 133.117188 L 105.316406 136.261719 L 113.816406 131.511719 C 114.480469 131.144531 115.308594 131.378906 115.675781 132.039062 C 116.042969 132.695312 115.808594 133.527344 115.148438 133.894531 L 106.15625 138.917969 L 108.230469 145.496094 L 108.230469 166.328125 C 108.230469 176.867188 116.773438 185.410156 127.3125 185.410156 L 148.054688 185.410156 C 156.367188 185.410156 163.101562 178.675781 163.101562 170.363281 L 163.101562 168.019531 C 171.765625 162.785156 176.351562 152.503906 174.117188 142.375 L 163.699219 142.375 C 162.945312 142.375 162.335938 141.761719 162.335938 141.011719 C 162.335938 140.257812 162.945312 139.644531 163.699219 139.644531 L 173.371094 139.644531 L 172.058594 135.480469 L 161.25 135.480469 C 160.496094 135.480469 159.882812 134.871094 159.882812 134.117188 C 159.882812 133.363281 160.496094 132.753906 161.25 132.753906 L 171.199219 132.753906 L 169.882812 128.589844 L 159.191406 128.589844 C 158.4375 128.589844 157.828125 127.980469 157.828125 127.226562 C 157.828125 126.472656 158.4375 125.863281 159.191406 125.863281 L 169.023438 125.863281 L 167.710938 121.695312 L 155.679688 121.695312 C 154.925781 121.695312 154.316406 121.085938 154.316406 120.332031 C 154.316406 119.578125 154.925781 118.96875 155.679688 118.96875 L 166.847656 118.96875 L 165.535156 114.804688 L 154.089844 114.804688 C 153.335938 114.804688 152.726562 114.195312 152.726562 113.441406 C 152.726562 112.6875 153.335938 112.078125 154.089844 112.078125 L 164.675781 112.078125 L 163.359375 107.910156 L 152.5 107.910156 C 151.746094 107.910156 151.136719 107.300781 151.136719 106.546875 C 151.136719 105.792969 151.746094 105.183594 152.5 105.183594 L 162.5 105.183594 L 162.175781 104.152344 C 161.828125 103.058594 161.390625 102.023438 160.910156 101.019531 L 150.910156 101.019531 C 150.15625 101.019531 149.546875 100.410156 149.546875 99.65625 C 149.546875 98.902344 150.15625 98.292969 150.910156 98.292969 L 159.382812 98.292969 C 155.3125 92.035156 148.554688 88.058594 141.207031 87.46875 L 145.890625 92.09375 C 146.425781 92.621094 146.429688 93.484375 145.902344 94.023438 C 145.632812 94.292969 145.285156 94.425781 144.929688 94.425781 C 144.585938 94.425781 144.238281 94.296875 143.972656 94.035156 L 137.332031 87.476562 C 136.34375 87.558594 135.355469 87.6875 134.367188 87.898438 L 139.402344 92.867188 C 139.9375 93.394531 139.941406 94.261719 139.414062 94.796875 C 139.144531 95.066406 138.796875 95.203125 138.441406 95.203125 C 138.097656 95.203125 137.75 95.070312 137.484375 94.808594 L 131.328125 88.730469 L 128.300781 89.6875 L 132.71875 94.046875 C 133.253906 94.574219 133.257812 95.441406 132.730469 95.976562 C 132.460938 96.246094 132.109375 96.382812 131.757812 96.382812 C 131.410156 96.382812 131.066406 96.25 130.796875 95.988281 L 125.359375 90.613281 L 116.910156 93.28125 C 106.300781 96.628906 99.6875 106.664062 100.1875 117.273438 L 107.222656 113.34375 C 107.882812 112.976562 108.710938 113.210938 109.078125 113.871094 Z M 147.25 106.609375 C 147.222656 107.347656 146.617188 107.925781 145.886719 107.925781 C 145.871094 107.925781 145.855469 107.925781 145.835938 107.925781 C 145.644531 107.925781 126.851562 107.34375 118.675781 117.105469 C 118.40625 117.425781 118.019531 117.59375 117.628906 117.59375 C 117.320312 117.59375 117.007812 117.488281 116.753906 117.277344 C 116.175781 116.792969 116.101562 115.933594 116.585938 115.355469 C 125.617188 104.566406 145.117188 105.15625 145.9375 105.199219 C 146.691406 105.226562 147.277344 105.859375 147.25 106.609375 Z M 148.964844 112.820312 C 148.9375 113.570312 148.402344 114.191406 147.550781 114.132812 C 147.359375 114.136719 128.566406 113.554688 120.394531 123.316406 C 120.125 123.636719 119.738281 123.804688 119.347656 123.804688 C 119.039062 123.804688 118.726562 123.699219 118.472656 123.484375 C 117.894531 123.003906 117.820312 122.140625 118.300781 121.5625 C 127.335938 110.773438 146.832031 111.371094 147.652344 111.40625 C 148.40625 111.433594 148.992188 112.066406 148.964844 112.820312 Z M 151.441406 118.945312 C 151.414062 119.695312 150.824219 120.296875 150.027344 120.257812 C 149.835938 120.261719 131.042969 119.675781 122.867188 129.441406 C 122.601562 129.761719 122.210938 129.929688 121.824219 129.929688 C 121.515625 129.929688 121.203125 129.824219 120.949219 129.609375 C 120.371094 129.128906 120.292969 128.265625 120.777344 127.6875 C 129.8125 116.894531 149.3125 117.496094 150.128906 117.53125 C 150.882812 117.558594 151.46875 118.191406 151.441406 118.945312 Z M 153.863281 125.699219 C 153.832031 126.449219 153.25 127.058594 152.449219 127.011719 C 152.257812 127.007812 133.460938 126.433594 125.292969 136.195312 C 125.023438 136.515625 124.636719 136.683594 124.246094 136.683594 C 123.9375 136.683594 123.625 136.578125 123.371094 136.363281 C 122.792969 135.882812 122.71875 135.019531 123.199219 134.441406 C 132.234375 123.652344 151.734375 124.253906 152.550781 124.285156 C 153.300781 124.3125 153.890625 124.945312 153.863281 125.699219 Z M 155.453125 130.988281 C 155.421875 131.738281 154.832031 132.328125 154.039062 132.300781 C 153.851562 132.304688 135.058594 131.71875 126.882812 141.484375 C 126.613281 141.804688 126.226562 141.972656 125.835938 141.972656 C 125.527344 141.972656 125.214844 141.867188 124.960938 141.652344 C 124.382812 141.171875 124.308594 140.308594 124.789062 139.734375 C 133.824219 128.9375 153.324219 129.535156 154.140625 129.574219 C 154.894531 129.601562 155.480469 130.234375 155.453125 130.988281 Z M 157.042969 137.375 C 157.015625 138.109375 156.410156 138.6875 155.679688 138.6875 C 155.664062 138.6875 155.648438 138.6875 155.628906 138.6875 C 155.4375 138.691406 136.648438 138.105469 128.472656 147.871094 C 128.203125 148.191406 127.816406 148.359375 127.425781 148.359375 C 127.117188 148.359375 126.804688 148.253906 126.550781 148.039062 C 125.972656 147.558594 125.898438 146.695312 126.382812 146.117188 C 135.417969 135.324219 154.90625 135.925781 155.730469 135.960938 C 156.484375 135.988281 157.070312 136.621094 157.042969 137.375 Z M 148.730469 150.09375 C 148.617188 149.351562 149.128906 148.652344 149.875 148.542969 C 150.601562 148.425781 151.3125 148.941406 151.425781 149.683594 C 152.277344 155.257812 151.035156 166.410156 140.246094 168.71875 C 140.152344 168.742188 140.058594 168.75 139.960938 168.75 C 139.332031 168.75 138.765625 168.3125 138.628906 167.671875 C 138.472656 166.933594 138.941406 166.210938 139.679688 166.050781 C 150.640625 163.703125 148.8125 150.648438 148.730469 150.09375 Z M 150.003906 169.320312 C 149.84375 169.382812 149.675781 169.414062 149.515625 169.414062 C 148.964844 169.414062 148.449219 169.078125 148.242188 168.535156 C 147.972656 167.832031 148.324219 167.042969 149.027344 166.773438 C 157.820312 163.402344 156.199219 151.878906 156.125 151.390625 C 156.011719 150.644531 156.527344 149.953125 157.273438 149.839844 C 157.996094 149.722656 158.707031 150.238281 158.824219 150.980469 C 158.847656 151.121094 160.855469 165.160156 150.003906 169.320312 Z M 163.511719 163.933594 C 163.25 164.3125 162.824219 164.519531 162.390625 164.519531 C 162.125 164.519531 161.851562 164.4375 161.617188 164.277344 C 160.996094 163.847656 160.84375 162.996094 161.269531 162.375 C 164.574219 157.621094 163.59375 150.777344 163.585938 150.707031 C 163.472656 149.964844 163.988281 149.269531 164.730469 149.15625 C 165.460938 149.046875 166.167969 149.558594 166.28125 150.296875 C 166.332031 150.621094 167.441406 158.269531 163.511719 163.933594 Z M 116.714844 167.921875 L 116.714844 167.140625 C 122.710938 174.738281 132.972656 178.257812 142.75 175.171875 L 156.980469 170.683594 C 156.230469 174.980469 152.503906 178.253906 147.992188 178.253906 L 127.046875 178.253906 C 121.339844 178.253906 116.714844 173.628906 116.714844 167.921875 Z M 114.609375 109.9375 C 123.644531 99.144531 143.140625 99.746094 143.957031 99.78125 C 144.710938 99.808594 145.296875 100.441406 145.269531 101.195312 C 145.242188 101.945312 144.671875 102.535156 143.855469 102.507812 C 143.664062 102.507812 124.875 101.925781 116.699219 111.691406 C 116.429688 112.011719 116.042969 112.179688 115.652344 112.179688 C 115.34375 112.179688 115.03125 112.074219 114.777344 111.859375 C 114.199219 111.375 114.125 110.515625 114.609375 109.9375 Z M 114.609375 109.9375 " fill-opacity="1" fill-rule="nonzero"/></g><g fill="#ffffff" fill-opacity="1"><g transform="translate(279.004115, 199.569204)"><g><path d="M 66.53125 -39.359375 L 28.4375 -39.359375 L 28.4375 0 L 8.59375 0 L 8.59375 -96.296875 L 71.296875 -96.296875 L 71.296875 -80.234375 L 28.4375 -80.234375 L 28.4375 -55.359375 L 66.53125 -55.359375 Z M 66.53125 -39.359375 "/></g></g></g><g fill="#ffffff" fill-opacity="1"><g transform="translate(353.204474, 199.569204)"><g><path d="M 48.8125 0 C 47.925781 -1.71875 47.285156 -3.859375 46.890625 -6.421875 C 42.265625 -1.253906 36.25 1.328125 28.84375 1.328125 C 21.832031 1.328125 16.019531 -0.695312 11.40625 -4.75 C 6.800781 -8.8125 4.5 -13.929688 4.5 -20.109375 C 4.5 -27.691406 7.304688 -33.507812 12.921875 -37.5625 C 18.546875 -41.625 26.671875 -43.675781 37.296875 -43.71875 L 46.09375 -43.71875 L 46.09375 -47.8125 C 46.09375 -51.125 45.242188 -53.769531 43.546875 -55.75 C 41.847656 -57.738281 39.171875 -58.734375 35.515625 -58.734375 C 32.296875 -58.734375 29.769531 -57.960938 27.9375 -56.421875 C 26.113281 -54.878906 25.203125 -52.757812 25.203125 -50.0625 L 6.078125 -50.0625 C 6.078125 -54.207031 7.351562 -58.039062 9.90625 -61.5625 C 12.46875 -65.09375 16.085938 -67.863281 20.765625 -69.875 C 25.441406 -71.882812 30.691406 -72.890625 36.515625 -72.890625 C 45.328125 -72.890625 52.320312 -70.671875 57.5 -66.234375 C 62.6875 -61.804688 65.28125 -55.578125 65.28125 -47.546875 L 65.28125 -16.53125 C 65.320312 -9.738281 66.269531 -4.601562 68.125 -1.125 L 68.125 0 Z M 33 -13.296875 C 35.820312 -13.296875 38.421875 -13.921875 40.796875 -15.171875 C 43.179688 -16.429688 44.945312 -18.117188 46.09375 -20.234375 L 46.09375 -32.546875 L 38.953125 -32.546875 C 29.390625 -32.546875 24.296875 -29.238281 23.671875 -22.625 L 23.609375 -21.5 C 23.609375 -19.113281 24.445312 -17.148438 26.125 -15.609375 C 27.800781 -14.066406 30.09375 -13.296875 33 -13.296875 Z M 33 -13.296875 "/></g></g></g><g fill="#ffffff" fill-opacity="1"><g transform="translate(425.81766, 199.569204)"><g><path d="M 4.359375 -36.3125 C 4.359375 -47.46875 6.859375 -56.351562 11.859375 -62.96875 C 16.867188 -69.582031 23.71875 -72.890625 32.40625 -72.890625 C 39.375 -72.890625 45.128906 -70.285156 49.671875 -65.078125 L 49.671875 -101.59375 L 68.84375 -101.59375 L 68.84375 0 L 51.59375 0 L 50.65625 -7.609375 C 45.894531 -1.648438 39.769531 1.328125 32.28125 1.328125 C 23.851562 1.328125 17.09375 -1.988281 12 -8.625 C 6.90625 -15.257812 4.359375 -24.488281 4.359375 -36.3125 Z M 23.484375 -34.921875 C 23.484375 -28.222656 24.648438 -23.085938 26.984375 -19.515625 C 29.316406 -15.941406 32.710938 -14.15625 37.171875 -14.15625 C 43.078125 -14.15625 47.242188 -16.644531 49.671875 -21.625 L 49.671875 -49.875 C 47.285156 -54.851562 43.160156 -57.34375 37.296875 -57.34375 C 28.085938 -57.34375 23.484375 -49.867188 23.484375 -34.921875 Z M 23.484375 -34.921875 "/></g></g></g><g fill="#ffffff" fill-opacity="1"><g transform="translate(502.134251, 199.569204)"><g><path d="M 40.28125 1.328125 C 29.78125 1.328125 21.234375 -1.890625 14.640625 -8.328125 C 8.054688 -14.765625 4.765625 -23.34375 4.765625 -34.0625 L 4.765625 -35.90625 C 4.765625 -43.09375 6.148438 -49.519531 8.921875 -55.1875 C 11.703125 -60.851562 15.640625 -65.21875 20.734375 -68.28125 C 25.828125 -71.351562 31.632812 -72.890625 38.15625 -72.890625 C 47.945312 -72.890625 55.648438 -69.800781 61.265625 -63.625 C 66.890625 -57.445312 69.703125 -48.695312 69.703125 -37.375 L 69.703125 -29.5625 L 24.140625 -29.5625 C 24.753906 -24.882812 26.613281 -21.132812 29.71875 -18.3125 C 32.832031 -15.5 36.769531 -14.09375 41.53125 -14.09375 C 48.894531 -14.09375 54.648438 -16.757812 58.796875 -22.09375 L 68.1875 -11.578125 C 65.320312 -7.515625 61.441406 -4.347656 56.546875 -2.078125 C 51.648438 0.191406 46.226562 1.328125 40.28125 1.328125 Z M 38.09375 -57.40625 C 34.300781 -57.40625 31.222656 -56.125 28.859375 -53.5625 C 26.503906 -51.007812 25 -47.351562 24.34375 -42.59375 L 50.921875 -42.59375 L 50.921875 -44.109375 C 50.835938 -48.347656 49.691406 -51.625 47.484375 -53.9375 C 45.285156 -56.25 42.15625 -57.40625 38.09375 -57.40625 Z M 38.09375 -57.40625 "/></g></g></g><g fill="#ffffff" fill-opacity="1"><g transform="translate(575.342626, 199.569204)"><g><path d="M 4.359375 -36.3125 C 4.359375 -47.46875 6.859375 -56.351562 11.859375 -62.96875 C 16.867188 -69.582031 23.71875 -72.890625 32.40625 -72.890625 C 39.375 -72.890625 45.128906 -70.285156 49.671875 -65.078125 L 49.671875 -101.59375 L 68.84375 -101.59375 L 68.84375 0 L 51.59375 0 L 50.65625 -7.609375 C 45.894531 -1.648438 39.769531 1.328125 32.28125 1.328125 C 23.851562 1.328125 17.09375 -1.988281 12 -8.625 C 6.90625 -15.257812 4.359375 -24.488281 4.359375 -36.3125 Z M 23.484375 -34.921875 C 23.484375 -28.222656 24.648438 -23.085938 26.984375 -19.515625 C 29.316406 -15.941406 32.710938 -14.15625 37.171875 -14.15625 C 43.078125 -14.15625 47.242188 -16.644531 49.671875 -21.625 L 49.671875 -49.875 C 47.285156 -54.851562 43.160156 -57.34375 37.296875 -57.34375 C 28.085938 -57.34375 23.484375 -49.867188 23.484375 -34.921875 Z M 23.484375 -34.921875 "/></g></g></g><g fill="#ffffff" fill-opacity="1"><g transform="translate(651.659217, 199.569204)"><g><path d="M 84.1875 -32.078125 C 83.445312 -21.710938 79.625 -13.550781 72.71875 -7.59375 C 65.820312 -1.644531 56.726562 1.328125 45.4375 1.328125 C 33.09375 1.328125 23.378906 -2.828125 16.296875 -11.140625 C 9.222656 -19.453125 5.6875 -30.863281 5.6875 -45.375 L 5.6875 -51.265625 C 5.6875 -60.515625 7.316406 -68.664062 10.578125 -75.71875 C 13.847656 -82.78125 18.515625 -88.195312 24.578125 -91.96875 C 30.640625 -95.738281 37.679688 -97.625 45.703125 -97.625 C 56.816406 -97.625 65.765625 -94.644531 72.546875 -88.6875 C 79.335938 -82.738281 83.265625 -74.382812 84.328125 -63.625 L 64.484375 -63.625 C 64.003906 -69.84375 62.273438 -74.347656 59.296875 -77.140625 C 56.316406 -79.941406 51.785156 -81.34375 45.703125 -81.34375 C 39.085938 -81.34375 34.132812 -78.972656 30.84375 -74.234375 C 27.5625 -69.492188 25.878906 -62.144531 25.796875 -52.1875 L 25.796875 -44.90625 C 25.796875 -34.5 27.367188 -26.890625 30.515625 -22.078125 C 33.671875 -17.273438 38.644531 -14.875 45.4375 -14.875 C 51.5625 -14.875 56.132812 -16.273438 59.15625 -19.078125 C 62.175781 -21.878906 63.910156 -26.210938 64.359375 -32.078125 Z M 84.1875 -32.078125 "/></g></g></g><g fill="#ffffff" fill-opacity="1"><g transform="translate(740.276402, 199.569204)"><g><path d="M 48.8125 0 C 47.925781 -1.71875 47.285156 -3.859375 46.890625 -6.421875 C 42.265625 -1.253906 36.25 1.328125 28.84375 1.328125 C 21.832031 1.328125 16.019531 -0.695312 11.40625 -4.75 C 6.800781 -8.8125 4.5 -13.929688 4.5 -20.109375 C 4.5 -27.691406 7.304688 -33.507812 12.921875 -37.5625 C 18.546875 -41.625 26.671875 -43.675781 37.296875 -43.71875 L 46.09375 -43.71875 L 46.09375 -47.8125 C 46.09375 -51.125 45.242188 -53.769531 43.546875 -55.75 C 41.847656 -57.738281 39.171875 -58.734375 35.515625 -58.734375 C 32.296875 -58.734375 29.769531 -57.960938 27.9375 -56.421875 C 26.113281 -54.878906 25.203125 -52.757812 25.203125 -50.0625 L 6.078125 -50.0625 C 6.078125 -54.207031 7.351562 -58.039062 9.90625 -61.5625 C 12.46875 -65.09375 16.085938 -67.863281 20.765625 -69.875 C 25.441406 -71.882812 30.691406 -72.890625 36.515625 -72.890625 C 45.328125 -72.890625 52.320312 -70.671875 57.5 -66.234375 C 62.6875 -61.804688 65.28125 -55.578125 65.28125 -47.546875 L 65.28125 -16.53125 C 65.320312 -9.738281 66.269531 -4.601562 68.125 -1.125 L 68.125 0 Z M 33 -13.296875 C 35.820312 -13.296875 38.421875 -13.921875 40.796875 -15.171875 C 43.179688 -16.429688 44.945312 -18.117188 46.09375 -20.234375 L 46.09375 -32.546875 L 38.953125 -32.546875 C 29.390625 -32.546875 24.296875 -29.238281 23.671875 -22.625 L 23.609375 -21.5 C 23.609375 -19.113281 24.445312 -17.148438 26.125 -15.609375 C 27.800781 -14.066406 30.09375 -13.296875 33 -13.296875 Z M 33 -13.296875 "/></g></g></g><g fill="#ffffff" fill-opacity="1"><g transform="translate(812.889587, 199.569204)"><g><path d="M 46.09375 -19.78125 C 46.09375 -22.113281 44.9375 -23.953125 42.625 -25.296875 C 40.3125 -26.640625 36.597656 -27.84375 31.484375 -28.90625 C 14.460938 -32.476562 5.953125 -39.707031 5.953125 -50.59375 C 5.953125 -56.945312 8.585938 -62.25 13.859375 -66.5 C 19.128906 -70.757812 26.019531 -72.890625 34.53125 -72.890625 C 43.613281 -72.890625 50.875 -70.75 56.3125 -66.46875 C 61.757812 -62.1875 64.484375 -56.628906 64.484375 -49.796875 L 45.375 -49.796875 C 45.375 -52.535156 44.488281 -54.796875 42.71875 -56.578125 C 40.957031 -58.367188 38.203125 -59.265625 34.453125 -59.265625 C 31.234375 -59.265625 28.742188 -58.535156 26.984375 -57.078125 C 25.222656 -55.617188 24.34375 -53.765625 24.34375 -51.515625 C 24.34375 -49.398438 25.34375 -47.691406 27.34375 -46.390625 C 29.351562 -45.097656 32.738281 -43.976562 37.5 -43.03125 C 42.257812 -42.082031 46.269531 -41.007812 49.53125 -39.8125 C 59.632812 -36.113281 64.6875 -29.695312 64.6875 -20.5625 C 64.6875 -14.039062 61.882812 -8.757812 56.28125 -4.71875 C 50.6875 -0.6875 43.457031 1.328125 34.59375 1.328125 C 28.59375 1.328125 23.265625 0.257812 18.609375 -1.875 C 13.960938 -4.019531 10.316406 -6.953125 7.671875 -10.671875 C 5.023438 -14.398438 3.703125 -18.425781 3.703125 -22.75 L 21.828125 -22.75 C 22.003906 -19.351562 23.257812 -16.75 25.59375 -14.9375 C 27.925781 -13.132812 31.054688 -12.234375 34.984375 -12.234375 C 38.648438 -12.234375 41.414062 -12.925781 43.28125 -14.3125 C 45.15625 -15.707031 46.09375 -17.53125 46.09375 -19.78125 Z M 46.09375 -19.78125 "/></g></g></g><g fill="#ffffff" fill-opacity="1"><g transform="translate(882.526823, 199.569204)"><g><path d="M 30.21875 -89.15625 L 30.21875 -71.5625 L 42.46875 -71.5625 L 42.46875 -57.546875 L 30.21875 -57.546875 L 30.21875 -21.828125 C 30.21875 -19.179688 30.722656 -17.285156 31.734375 -16.140625 C 32.753906 -14.992188 34.695312 -14.421875 37.5625 -14.421875 C 39.675781 -14.421875 41.550781 -14.570312 43.1875 -14.875 L 43.1875 -0.390625 C 39.4375 0.753906 35.578125 1.328125 31.609375 1.328125 C 18.210938 1.328125 11.378906 -5.441406 11.109375 -18.984375 L 11.109375 -57.546875 L 0.65625 -57.546875 L 0.65625 -71.5625 L 11.109375 -71.5625 L 11.109375 -89.15625 Z M 30.21875 -89.15625 "/></g></g></g></svg>