<svg xmlns="http://www.w3.org/2000/svg" xmlns:xlink="http://www.w3.org/1999/xlink" width="800" zoomAndPan="magnify" viewBox="0 0 600 599.999999" height="800" preserveAspectRatio="xMidYMid meet" version="1.0"><defs><clipPath id="339f9a7695"><path d="M 87 13 L 591 13 L 591 593 L 87 593 Z M 87 13 " clip-rule="nonzero"/></clipPath><clipPath id="b3df9ecd59"><path d="M -159.402344 160.023438 L 335.742188 -132.683594 L 591.488281 299.929688 L 96.34375 592.640625 Z M -159.402344 160.023438 " clip-rule="nonzero"/></clipPath><clipPath id="3d88b8dcc7"><path d="M 87.808594 13.882812 L 590.765625 300.359375 L 96.34375 592.640625 Z M 87.808594 13.882812 " clip-rule="nonzero"/></clipPath><clipPath id="4addc60f58"><path d="M 97.59375 326 L 309.84375 326 L 309.84375 453.871094 L 97.59375 453.871094 Z M 97.59375 326 " clip-rule="nonzero"/></clipPath><clipPath id="2c182530fb"><path d="M 106 101.371094 L 305 101.371094 L 305 363 L 106 363 Z M 106 101.371094 " clip-rule="nonzero"/></clipPath></defs><g clip-path="url(#339f9a7695)"><g clip-path="url(#b3df9ecd59)"><g clip-path="url(#3d88b8dcc7)"><path fill="#ff3030" d="M -159.402344 160.023438 L 335.742188 -132.683594 L 591.488281 299.929688 L 96.34375 592.640625 Z M -159.402344 160.023438 " fill-opacity="1" fill-rule="nonzero"/></g></g></g><g clip-path="url(#4addc60f58)"><path fill="#1a1a1a" d="M 97.511719 453.625 L 309.71875 453.625 C 296.25 439.820312 280.097656 428.640625 262.15625 420.871094 C 248.015625 414.835938 232.703125 410.925781 216.664062 409.527344 L 216.664062 326.253906 L 190.566406 326.253906 L 190.566406 409.527344 C 154.125 412.65625 121.597656 428.921875 97.511719 453.625 Z M 97.511719 453.625 " fill-opacity="1" fill-rule="nonzero"/></g><g clip-path="url(#2c182530fb)"><path fill="#1a1a1a" d="M 130.152344 171.714844 C 131.128906 173.460938 130.507812 175.675781 128.753906 176.65625 L 107.328125 188.625 C 107.8125 191.429688 108.421875 194.238281 109.300781 197.027344 L 109.527344 197.742188 L 129.425781 186.625 C 131.1875 185.644531 133.394531 186.269531 134.371094 188.023438 C 135.347656 189.777344 134.726562 191.992188 132.972656 192.964844 L 111.761719 204.816406 L 115.257812 215.894531 L 135.449219 204.609375 C 137.214844 203.625 139.417969 204.261719 140.394531 206.011719 C 141.375 207.761719 140.75 209.972656 139 210.953125 L 117.488281 222.96875 L 120.132812 231.34375 L 142.769531 218.695312 C 144.53125 217.710938 146.738281 218.339844 147.714844 220.097656 C 148.691406 221.847656 148.070312 224.0625 146.316406 225.039062 L 122.367188 238.421875 L 127.894531 255.9375 L 127.894531 311.417969 C 127.894531 339.484375 150.644531 362.234375 178.710938 362.234375 L 233.953125 362.234375 C 256.085938 362.234375 274.027344 344.292969 274.027344 322.160156 L 274.027344 315.914062 C 297.089844 301.976562 309.308594 274.59375 303.363281 247.621094 L 275.613281 247.621094 C 273.605469 247.621094 271.980469 245.996094 271.980469 243.988281 C 271.980469 241.980469 273.605469 240.355469 275.613281 240.355469 L 301.375 240.355469 L 297.875 229.265625 L 269.085938 229.265625 C 267.078125 229.265625 265.453125 227.640625 265.453125 225.632812 C 265.453125 223.625 267.078125 222 269.085938 222 L 295.582031 222 L 292.082031 210.910156 L 263.613281 210.910156 C 261.601562 210.910156 259.976562 209.285156 259.976562 207.277344 C 259.976562 205.269531 261.601562 203.644531 263.613281 203.644531 L 289.792969 203.644531 L 286.292969 192.554688 L 254.257812 192.554688 C 252.25 192.554688 250.625 190.929688 250.625 188.921875 C 250.625 186.914062 252.25 185.289062 254.257812 185.289062 L 284 185.289062 L 280.5 174.199219 L 250.023438 174.199219 C 248.015625 174.199219 246.390625 172.574219 246.390625 170.566406 C 246.390625 168.558594 248.015625 166.933594 250.023438 166.933594 L 278.210938 166.933594 L 274.710938 155.84375 L 245.789062 155.84375 C 243.78125 155.84375 242.15625 154.21875 242.15625 152.210938 C 242.15625 150.203125 243.78125 148.578125 245.789062 148.578125 L 272.417969 148.578125 L 271.550781 145.832031 C 270.632812 142.917969 269.460938 140.167969 268.183594 137.488281 L 241.554688 137.488281 C 239.546875 137.488281 237.921875 135.863281 237.921875 133.855469 C 237.921875 131.847656 239.546875 130.222656 241.554688 130.222656 L 264.121094 130.222656 C 253.277344 113.566406 235.28125 102.96875 215.707031 101.398438 L 228.183594 113.714844 C 229.609375 115.125 229.625 117.425781 228.21875 118.851562 C 227.503906 119.574219 226.570312 119.933594 225.632812 119.933594 C 224.707031 119.933594 223.785156 119.582031 223.078125 118.882812 L 205.394531 101.425781 C 202.765625 101.644531 200.132812 101.988281 197.5 102.542969 L 210.90625 115.777344 C 212.332031 117.183594 212.347656 119.484375 210.9375 120.914062 C 210.222656 121.632812 209.289062 121.992188 208.351562 121.992188 C 207.429688 121.992188 206.507812 121.644531 205.796875 120.945312 L 189.402344 104.761719 L 181.339844 107.308594 L 193.101562 118.917969 C 194.527344 120.328125 194.542969 122.628906 193.136719 124.054688 C 192.421875 124.777344 191.488281 125.136719 190.546875 125.136719 C 189.625 125.136719 188.703125 124.785156 187.992188 124.085938 L 173.503906 109.78125 L 151.007812 116.878906 C 122.757812 125.792969 105.140625 152.523438 106.476562 180.777344 L 125.207031 170.3125 C 126.96875 169.328125 129.171875 169.960938 130.152344 171.714844 Z M 231.804688 152.378906 C 231.734375 154.335938 230.117188 155.878906 228.171875 155.878906 C 228.128906 155.878906 228.085938 155.878906 228.035156 155.875 C 227.527344 155.875 177.480469 154.328125 155.707031 180.328125 C 154.992188 181.183594 153.960938 181.628906 152.925781 181.628906 C 152.097656 181.628906 151.269531 181.347656 150.59375 180.78125 C 149.054688 179.496094 148.851562 177.199219 150.140625 175.664062 C 174.199219 146.9375 226.128906 148.507812 228.308594 148.617188 C 230.3125 148.6875 231.878906 150.375 231.804688 152.378906 Z M 236.371094 168.914062 C 236.300781 170.917969 234.871094 172.566406 232.605469 172.410156 C 232.097656 172.417969 182.046875 170.871094 160.28125 196.867188 C 159.566406 197.722656 158.535156 198.164062 157.5 198.164062 C 156.675781 198.164062 155.84375 197.886719 155.167969 197.320312 C 153.628906 196.03125 153.425781 193.738281 154.714844 192.199219 C 178.773438 163.464844 230.691406 165.058594 232.875 165.148438 C 234.882812 165.222656 236.445312 166.910156 236.371094 168.914062 Z M 242.96875 185.226562 C 242.894531 187.226562 241.324219 188.828125 239.203125 188.71875 C 238.691406 188.734375 188.648438 187.171875 166.875 213.175781 C 166.160156 214.035156 165.128906 214.476562 164.089844 214.476562 C 163.265625 214.476562 162.4375 214.199219 161.761719 213.632812 C 160.222656 212.34375 160.019531 210.050781 161.308594 208.511719 C 185.371094 179.769531 237.296875 181.363281 239.472656 181.464844 C 241.480469 181.535156 243.046875 183.222656 242.96875 185.226562 Z M 249.414062 203.210938 C 249.339844 205.214844 247.785156 206.835938 245.648438 206.707031 C 245.148438 206.699219 195.085938 205.167969 173.328125 231.164062 C 172.613281 232.019531 171.578125 232.464844 170.542969 232.464844 C 169.71875 232.464844 168.890625 232.183594 168.210938 231.617188 C 166.671875 230.328125 166.472656 228.035156 167.757812 226.5 C 191.816406 197.765625 243.75 199.359375 245.921875 199.449219 C 247.925781 199.523438 249.492188 201.207031 249.414062 203.210938 Z M 253.648438 217.296875 C 253.574219 219.300781 252 220.867188 249.882812 220.792969 C 249.382812 220.804688 199.332031 219.25 177.5625 245.246094 C 176.847656 246.105469 175.816406 246.546875 174.777344 246.546875 C 173.953125 246.546875 173.125 246.269531 172.449219 245.703125 C 170.910156 244.414062 170.707031 242.121094 171.996094 240.585938 C 196.054688 211.839844 247.976562 213.425781 250.15625 213.535156 C 252.160156 213.609375 253.726562 215.296875 253.648438 217.296875 Z M 257.886719 234.304688 C 257.816406 236.261719 256.199219 237.800781 254.257812 237.800781 C 254.214844 237.800781 254.171875 237.800781 254.121094 237.800781 C 253.609375 237.8125 203.570312 236.253906 181.800781 262.257812 C 181.085938 263.113281 180.050781 263.558594 179.015625 263.558594 C 178.191406 263.558594 177.363281 263.277344 176.683594 262.710938 C 175.144531 261.421875 174.941406 259.128906 176.230469 257.59375 C 200.292969 228.847656 252.191406 230.445312 254.390625 230.542969 C 256.398438 230.613281 257.960938 232.300781 257.886719 234.304688 Z M 235.75 268.179688 C 235.449219 266.199219 236.8125 264.34375 238.800781 264.046875 C 240.730469 263.738281 242.625 265.109375 242.929688 267.085938 C 245.195312 281.933594 241.886719 311.632812 213.15625 317.78125 C 212.902344 317.835938 212.648438 317.863281 212.394531 317.863281 C 210.71875 317.863281 209.210938 316.695312 208.847656 314.992188 C 208.425781 313.03125 209.675781 311.097656 211.640625 310.675781 C 240.832031 304.429688 235.96875 269.65625 235.75 268.179688 Z M 239.140625 319.386719 C 238.710938 319.546875 238.269531 319.628906 237.839844 319.628906 C 236.375 319.628906 235 318.738281 234.445312 317.292969 C 233.730469 315.421875 234.667969 313.316406 236.539062 312.601562 C 259.953125 303.628906 255.640625 272.933594 255.445312 271.628906 C 255.144531 269.648438 256.507812 267.800781 258.496094 267.5 C 260.425781 267.1875 262.320312 268.5625 262.625 270.539062 C 262.6875 270.914062 268.042969 308.304688 239.140625 319.386719 Z M 275.117188 305.03125 C 274.414062 306.050781 273.277344 306.59375 272.128906 306.59375 C 271.417969 306.59375 270.691406 306.382812 270.0625 305.949219 C 268.414062 304.804688 268.007812 302.539062 269.148438 300.890625 C 277.9375 288.222656 275.335938 270 275.308594 269.816406 C 275.011719 267.832031 276.378906 265.980469 278.359375 265.683594 C 280.300781 265.390625 282.1875 266.75 282.488281 268.722656 C 282.621094 269.585938 285.578125 289.953125 275.117188 305.03125 Z M 150.484375 315.65625 L 150.484375 313.578125 C 166.453125 333.8125 193.78125 343.1875 219.820312 334.96875 L 257.71875 323.011719 C 255.726562 334.457031 245.800781 343.175781 233.785156 343.175781 L 178.003906 343.175781 C 162.804688 343.175781 150.484375 330.851562 150.484375 315.65625 Z M 144.875 161.238281 C 168.945312 132.496094 220.859375 134.09375 223.039062 134.191406 C 225.039062 134.265625 226.605469 135.949219 226.53125 137.953125 C 226.460938 139.957031 224.9375 141.523438 222.765625 141.449219 C 222.257812 141.453125 172.214844 139.902344 150.441406 165.90625 C 149.726562 166.761719 148.695312 167.207031 147.660156 167.207031 C 146.832031 167.207031 146.003906 166.925781 145.328125 166.359375 C 143.789062 165.070312 143.589844 162.777344 144.875 161.238281 Z M 144.875 161.238281 " fill-opacity="1" fill-rule="nonzero"/></g></svg>